# Blender 5.0.1
# www.blender.org
o Suzanne
v 0.179688 -0.968750 0.554688
v 0.164062 -0.929688 0.632812
v 0.000000 -0.945312 0.640625
v 0.000000 -0.984375 0.578125
v -0.164062 -0.929688 0.632812
v -0.179688 -0.968750 0.554688
v 0.328125 -0.945312 0.523438
v 0.234375 -0.914062 0.632812
v -0.234375 -0.914062 0.632812
v -0.328125 -0.945312 0.523438
v 0.367188 -0.890625 0.531250
v 0.265625 -0.820312 0.664062
v -0.265625 -0.820312 0.664062
v -0.367188 -0.890625 0.531250
v 0.351562 -0.695312 0.570312
v 0.250000 -0.703125 0.687500
v -0.250000 -0.703125 0.687500
v -0.351562 -0.695312 0.570312
v 0.312500 -0.437500 0.570312
v 0.210938 -0.445312 0.710938
v -0.210938 -0.445312 0.710938
v -0.312500 -0.437500 0.570312
v 0.203125 -0.187500 0.562500
v 0.437500 -0.140625 0.531250
v 0.398438 -0.046875 0.671875
v 0.125000 -0.101562 0.812500
v -0.398438 -0.046875 0.671875
v -0.437500 -0.140625 0.531250
v -0.203125 -0.187500 0.562500
v -0.125000 -0.101562 0.812500
v 0.632812 -0.039062 0.539062
v 0.617188 0.054688 0.625000
v -0.617188 0.054688 0.625000
v -0.632812 -0.039062 0.539062
v 0.828125 0.148438 0.445312
v 0.726562 0.203125 0.601562
v -0.726562 0.203125 0.601562
v -0.828125 0.148438 0.445312
v 0.859375 0.429688 0.593750
v 0.742188 0.375000 0.656250
v -0.742188 0.375000 0.656250
v -0.859375 0.429688 0.593750
v 0.710938 0.484375 0.625000
v 0.687500 0.414062 0.726562
v -0.687500 0.414062 0.726562
v -0.710938 0.484375 0.625000
v 0.492188 0.601562 0.687500
v 0.437500 0.546875 0.796875
v -0.437500 0.546875 0.796875
v -0.492188 0.601562 0.687500
v 0.320312 0.757812 0.734375
v 0.312500 0.640625 0.835938
v -0.312500 0.640625 0.835938
v -0.320312 0.757812 0.734375
v 0.156250 0.718750 0.757812
v 0.203125 0.617188 0.851562
v -0.203125 0.617188 0.851562
v -0.156250 0.718750 0.757812
v 0.062500 0.492188 0.750000
v 0.101562 0.429688 0.843750
v -0.101562 0.429688 0.843750
v -0.062500 0.492188 0.750000
v 0.000000 0.429688 0.742188
v 0.000000 0.351562 0.820312
v 0.164062 0.414062 0.773438
v 0.250000 0.468750 0.757812
v -0.250000 0.468750 0.757812
v -0.164062 0.414062 0.773438
v 0.328125 0.476562 0.742188
v -0.328125 0.476562 0.742188
v 0.429688 0.437500 0.718750
v -0.429688 0.437500 0.718750
v 0.601562 0.375000 0.664062
v -0.601562 0.375000 0.664062
v 0.640625 0.296875 0.648438
v -0.640625 0.296875 0.648438
v 0.625000 0.187500 0.648438
v -0.625000 0.187500 0.648438
v 0.492188 0.062500 0.671875
v -0.492188 0.062500 0.671875
v 0.375000 0.015625 0.703125
v -0.375000 0.015625 0.703125
v 0.203125 0.093750 0.742188
v -0.203125 0.093750 0.742188
v 0.164062 0.140625 0.750000
v 0.000000 0.046875 0.726562
v -0.164062 0.140625 0.750000
v 0.125000 0.304688 0.765625
v -0.125000 0.304688 0.765625
v 0.000000 0.210938 0.765625
v 0.132812 0.210938 0.757812
v -0.132812 0.210938 0.757812
v 0.062500 -0.882812 0.695312
v 0.000000 -0.890625 0.687500
v -0.062500 -0.882812 0.695312
v 0.117188 -0.835938 0.710938
v -0.117188 -0.835938 0.710938
v 0.109375 -0.718750 0.734375
v -0.109375 -0.718750 0.734375
v 0.078125 -0.445312 0.750000
v 0.117188 -0.687500 0.734375
v -0.117188 -0.687500 0.734375
v -0.078125 -0.445312 0.750000
v 0.085938 -0.289062 0.742188
v 0.000000 -0.328125 0.742188
v 0.000000 -0.445312 0.750000
v -0.085938 -0.289062 0.742188
v 0.000000 -0.679688 0.734375
v 0.000000 -0.765625 0.734375
v 0.125000 -0.226562 0.750000
v 0.132812 -0.226562 0.796875
v 0.093750 -0.273438 0.781250
v -0.093750 -0.273438 0.781250
v -0.132812 -0.226562 0.796875
v -0.125000 -0.226562 0.750000
v 0.101562 -0.148438 0.742188
v 0.109375 -0.132812 0.781250
v -0.109375 -0.132812 0.781250
v -0.101562 -0.148438 0.742188
v 0.000000 -0.140625 0.742188
v 0.039062 -0.125000 0.781250
v -0.039062 -0.125000 0.781250
v 0.000000 -0.195312 0.750000
v 0.000000 -0.187500 0.796875
v 0.000000 -0.320312 0.781250
v 0.078125 -0.250000 0.804688
v 0.000000 -0.289062 0.804688
v -0.078125 -0.250000 0.804688
v 0.000000 -0.203125 0.828125
v 0.046875 -0.148438 0.812500
v -0.046875 -0.148438 0.812500
v 0.093750 -0.156250 0.812500
v -0.093750 -0.156250 0.812500
v 0.109375 -0.226562 0.828125
v -0.109375 -0.226562 0.828125
v 0.164062 -0.242188 0.710938
v -0.164062 -0.242188 0.710938
v 0.179688 -0.312500 0.710938
v -0.179688 -0.312500 0.710938
v 0.257812 -0.312500 0.554688
v -0.257812 -0.312500 0.554688
v 0.234375 -0.250000 0.554688
v -0.234375 -0.250000 0.554688
v 0.000000 -0.773438 0.718750
v 0.093750 -0.742188 0.726562
v -0.093750 -0.742188 0.726562
v 0.093750 -0.820312 0.710938
v -0.093750 -0.820312 0.710938
v 0.046875 -0.867188 0.687500
v -0.046875 -0.867188 0.687500
v 0.000000 -0.875000 0.687500
v 0.046875 -0.851562 0.632812
v 0.000000 -0.859375 0.632812
v -0.046875 -0.851562 0.632812
v 0.093750 -0.812500 0.640625
v -0.093750 -0.812500 0.640625
v 0.093750 -0.750000 0.664062
v -0.093750 -0.750000 0.664062
v 0.000000 -0.781250 0.656250
v 0.187500 0.156250 0.773438
v 0.171875 0.218750 0.781250
v -0.187500 0.156250 0.773438
v -0.171875 0.218750 0.781250
v 0.179688 0.296875 0.781250
v -0.179688 0.296875 0.781250
v 0.210938 0.375000 0.781250
v -0.210938 0.375000 0.781250
v 0.226562 0.109375 0.781250
v -0.226562 0.109375 0.781250
v 0.375000 0.062500 0.742188
v -0.375000 0.062500 0.742188
v 0.476562 0.101562 0.718750
v -0.476562 0.101562 0.718750
v 0.578125 0.195312 0.679688
v -0.578125 0.195312 0.679688
v 0.585938 0.289062 0.687500
v -0.585938 0.289062 0.687500
v 0.562500 0.351562 0.695312
v -0.562500 0.351562 0.695312
v 0.421875 0.398438 0.773438
v -0.421875 0.398438 0.773438
v 0.335938 0.429688 0.757812
v -0.335938 0.429688 0.757812
v 0.273438 0.421875 0.773438
v -0.273438 0.421875 0.773438
v 0.234375 0.359375 0.757812
v 0.281250 0.398438 0.765625
v -0.234375 0.359375 0.757812
v -0.281250 0.398438 0.765625
v 0.335938 0.406250 0.750000
v -0.335938 0.406250 0.750000
v 0.414062 0.390625 0.750000
v -0.414062 0.390625 0.750000
v 0.531250 0.335938 0.679688
v -0.531250 0.335938 0.679688
v 0.554688 0.281250 0.671875
v -0.554688 0.281250 0.671875
v 0.546875 0.210938 0.671875
v -0.546875 0.210938 0.671875
v 0.460938 0.117188 0.703125
v -0.460938 0.117188 0.703125
v 0.375000 0.085938 0.726562
v -0.375000 0.085938 0.726562
v 0.242188 0.125000 0.757812
v -0.242188 0.125000 0.757812
v 0.203125 0.171875 0.750000
v -0.203125 0.171875 0.750000
v 0.195312 0.296875 0.757812
v -0.195312 0.296875 0.757812
v 0.195312 0.226562 0.750000
v -0.195312 0.226562 0.750000
v 0.109375 0.460938 0.609375
v 0.000000 0.406250 0.601562
v -0.109375 0.460938 0.609375
v 0.195312 0.664062 0.617188
v -0.195312 0.664062 0.617188
v 0.335938 0.687500 0.593750
v -0.335938 0.687500 0.593750
v 0.484375 0.554688 0.554688
v -0.484375 0.554688 0.554688
v 0.679688 0.453125 0.492188
v -0.679688 0.453125 0.492188
v 0.796875 0.406250 0.460938
v -0.796875 0.406250 0.460938
v 0.773438 0.164062 0.375000
v -0.773438 0.164062 0.375000
v 0.601562 0.000000 0.414062
v -0.601562 0.000000 0.414062
v 0.437500 -0.093750 0.468750
v -0.437500 -0.093750 0.468750
v 0.000000 -0.570312 0.320312
v 0.000000 -0.484375 0.281250
v 0.179688 -0.414062 0.257812
v 0.125000 -0.539062 0.359375
v -0.179688 -0.414062 0.257812
v 0.000000 -0.484375 0.281250
v 0.000000 -0.570312 0.320312
v -0.125000 -0.539062 0.359375
v 0.000000 -0.804688 0.343750
v 0.140625 -0.757812 0.367188
v 0.000000 -0.804688 0.343750
v -0.140625 -0.757812 0.367188
v 0.000000 -0.976562 0.460938
v 0.164062 -0.945312 0.437500
v 0.000000 -0.976562 0.460938
v -0.164062 -0.945312 0.437500
v 0.179688 -0.968750 0.554688
v 0.000000 -0.984375 0.578125
v 0.000000 -0.984375 0.578125
v -0.179688 -0.968750 0.554688
v 0.328125 -0.945312 0.523438
v 0.328125 -0.914062 0.398438
v -0.328125 -0.945312 0.523438
v -0.328125 -0.914062 0.398438
v 0.289062 -0.710938 0.382812
v -0.289062 -0.710938 0.382812
v 0.250000 -0.500000 0.390625
v -0.250000 -0.500000 0.390625
v 0.234375 -0.351562 0.406250
v -0.234375 -0.351562 0.406250
v 0.218750 -0.281250 0.429688
v 0.210938 -0.226562 0.468750
v -0.210938 -0.226562 0.468750
v -0.218750 -0.281250 0.429688
v 0.203125 -0.171875 0.500000
v -0.203125 -0.171875 0.500000
v 0.000000 0.070312 -0.828125
v 0.335938 0.054688 -0.664062
v 0.343750 -0.148438 -0.539062
v 0.000000 -0.195312 -0.671875
v -0.343750 -0.148438 -0.539062
v -0.335938 0.054688 -0.664062
v 0.000000 0.070312 -0.828125
v 0.000000 -0.195312 -0.671875
v 0.296875 -0.312500 -0.265625
v 0.000000 -0.382812 -0.351562
v -0.296875 -0.312500 -0.265625
v 0.000000 -0.382812 -0.351562
v 0.210938 -0.390625 0.164062
v 0.000000 -0.460938 0.187500
v -0.210938 -0.390625 0.164062
v 0.000000 -0.460938 0.187500
v 0.734375 -0.046875 0.070312
v 0.851562 0.234375 0.054688
v -0.734375 -0.046875 0.070312
v -0.851562 0.234375 0.054688
v 0.000000 0.562500 -0.851562
v 0.460938 0.437500 -0.703125
v -0.460938 0.437500 -0.703125
v 0.000000 0.562500 -0.851562
v 0.000000 0.898438 0.289062
v 0.453125 0.851562 0.234375
v 0.453125 0.929688 -0.070312
v 0.000000 0.984375 -0.078125
v -0.453125 0.929688 -0.070312
v -0.453125 0.851562 0.234375
v 0.453125 0.867188 -0.382812
v 0.000000 0.898438 -0.546875
v -0.453125 0.867188 -0.382812
v 0.460938 0.437500 -0.703125
v 0.000000 0.562500 -0.851562
v -0.460938 0.437500 -0.703125
v 0.726562 0.406250 0.335938
v 0.632812 0.453125 0.281250
v -0.726562 0.406250 0.335938
v -0.632812 0.453125 0.281250
v 0.796875 0.562500 0.125000
v 0.640625 0.703125 0.054688
v -0.796875 0.562500 0.125000
v -0.640625 0.703125 0.054688
v 0.796875 0.617188 -0.117188
v 0.640625 0.750000 -0.195312
v -0.796875 0.617188 -0.117188
v -0.640625 0.750000 -0.195312
v 0.796875 0.539062 -0.359375
v 0.640625 0.679688 -0.445312
v -0.796875 0.539062 -0.359375
v -0.640625 0.679688 -0.445312
v 0.773438 0.265625 -0.437500
v 0.617188 0.328125 -0.585938
v -0.617188 0.328125 -0.585938
v -0.773438 0.265625 -0.437500
v 0.460938 0.523438 0.429688
v -0.460938 0.523438 0.429688
v 0.000000 0.570312 0.570312
v 0.859375 0.320312 -0.046875
v -0.859375 0.320312 -0.046875
v 0.820312 0.328125 -0.203125
v -0.820312 0.328125 -0.203125
v 0.429688 -0.195312 -0.210938
v 0.406250 -0.171875 0.148438
v -0.429688 -0.195312 -0.210938
v -0.406250 -0.171875 0.148438
v 0.593750 -0.125000 -0.164062
v -0.593750 -0.125000 -0.164062
v 0.773438 0.265625 -0.437500
v 0.640625 -0.007812 -0.429688
v 0.484375 0.023438 -0.546875
v 0.617188 0.328125 -0.585938
v -0.484375 0.023438 -0.546875
v -0.640625 -0.007812 -0.429688
v -0.773438 0.265625 -0.437500
v -0.617188 0.328125 -0.585938
v 1.023438 0.476562 -0.312500
v 0.890625 0.406250 -0.234375
v 0.921875 0.359375 -0.218750
v 1.015625 0.414062 -0.289062
v -0.921875 0.359375 -0.218750
v -0.890625 0.406250 -0.234375
v -1.023438 0.476562 -0.312500
v -1.015625 0.414062 -0.289062
v 1.187500 0.437500 -0.390625
v 1.234375 0.507812 -0.421875
v -1.187500 0.437500 -0.390625
v -1.234375 0.507812 -0.421875
v 1.265625 0.289062 -0.406250
v 1.351562 0.320312 -0.421875
v -1.265625 0.289062 -0.406250
v -1.351562 0.320312 -0.421875
v 1.210938 0.078125 -0.406250
v 1.281250 0.054688 -0.429688
v -1.210938 0.078125 -0.406250
v -1.281250 0.054688 -0.429688
v 1.031250 -0.039062 -0.304688
v 1.039062 -0.101562 -0.328125
v -1.031250 -0.039062 -0.304688
v -1.039062 -0.101562 -0.328125
v 0.828125 -0.070312 -0.132812
v 0.773438 -0.140625 -0.125000
v -0.828125 -0.070312 -0.132812
v -0.773438 -0.140625 -0.125000
v 1.039062 -0.000000 -0.367188
v 0.882812 -0.023438 -0.210938
v -0.882812 -0.023438 -0.210938
v -1.039062 -0.000000 -0.367188
v 1.187500 0.093750 -0.445312
v -1.187500 0.093750 -0.445312
v 1.234375 0.250000 -0.445312
v -1.234375 0.250000 -0.445312
v 1.171875 0.359375 -0.437500
v -1.171875 0.359375 -0.437500
v 1.023438 0.343750 -0.359375
v -1.023438 0.343750 -0.359375
v 0.945312 0.304688 -0.289062
v -0.945312 0.304688 -0.289062
v 0.718750 -0.023438 -0.171875
v 0.726562 -0.000000 -0.070312
v -0.718750 -0.023438 -0.171875
v -0.726562 -0.000000 -0.070312
v 0.843750 0.289062 -0.210938
v -0.843750 0.289062 -0.210938
v 0.812500 -0.015625 -0.273438
v -0.812500 -0.015625 -0.273438
v 0.843750 0.015625 -0.273438
v 0.718750 0.039062 -0.187500
v -0.718750 0.039062 -0.187500
v -0.843750 0.015625 -0.273438
v 0.757812 0.093750 -0.273438
v 0.820312 0.085938 -0.273438
v -0.757812 0.093750 -0.273438
v -0.820312 0.085938 -0.273438
v 0.835938 0.171875 -0.273438
v 0.796875 0.203125 -0.210938
v -0.796875 0.203125 -0.210938
v -0.835938 0.171875 -0.273438
v 0.890625 0.242188 -0.265625
v -0.890625 0.242188 -0.265625
v 0.890625 0.234375 -0.320312
v 0.953125 0.289062 -0.343750
v -0.890625 0.234375 -0.320312
v -0.953125 0.289062 -0.343750
v 0.843750 0.171875 -0.320312
v -0.843750 0.171875 -0.320312
v 0.765625 0.093750 -0.320312
v -0.765625 0.093750 -0.320312
v 0.828125 0.078125 -0.320312
v -0.828125 0.078125 -0.320312
v 0.851562 0.015625 -0.320312
v -0.851562 0.015625 -0.320312
v 0.812500 -0.015625 -0.320312
v -0.812500 -0.015625 -0.320312
v 0.882812 -0.015625 -0.265625
v -0.882812 -0.015625 -0.265625
v 1.039062 0.328125 -0.414062
v -1.039062 0.328125 -0.414062
v 1.187500 0.343750 -0.484375
v -1.187500 0.343750 -0.484375
v 1.257812 0.242188 -0.492188
v -1.257812 0.242188 -0.492188
v 1.210938 0.085938 -0.484375
v -1.210938 0.085938 -0.484375
v 1.046875 -0.000000 -0.421875
v -1.046875 -0.000000 -0.421875
v 0.937500 0.062500 -0.335938
v 0.890625 0.109375 -0.328125
v -0.937500 0.062500 -0.335938
v -0.890625 0.109375 -0.328125
v 1.000000 0.125000 -0.367188
v 0.960938 0.171875 -0.351562
v -1.000000 0.125000 -0.367188
v -0.960938 0.171875 -0.351562
v 1.054688 0.187500 -0.382812
v 1.015625 0.234375 -0.375000
v -1.054688 0.187500 -0.382812
v -1.015625 0.234375 -0.375000
v 1.109375 0.210938 -0.390625
v 1.085938 0.273438 -0.390625
v -1.109375 0.210938 -0.390625
v -1.085938 0.273438 -0.390625
v 0.789062 -0.125000 -0.328125
v 1.039062 -0.085938 -0.492188
v -0.789062 -0.125000 -0.328125
v -1.039062 -0.085938 -0.492188
v 1.312500 0.054688 -0.531250
v -1.312500 0.054688 -0.531250
v 1.367188 0.296875 -0.500000
v -1.367188 0.296875 -0.500000
v 1.250000 0.468750 -0.546875
v -1.367188 0.296875 -0.500000
v -1.250000 0.468750 -0.546875
v 1.023438 0.437500 -0.484375
v -1.023438 0.437500 -0.484375
v 0.859375 0.382812 -0.382812
v -0.859375 0.382812 -0.382812
v 1.023438 0.437500 -0.484375
v 0.859375 0.382812 -0.382812
v -1.023438 0.437500 -0.484375
v -0.859375 0.382812 -0.382812
v 1.250000 0.468750 -0.546875
v -1.250000 0.468750 -0.546875
v 1.367188 0.296875 -0.500000
v 0.351563 0.262019 0.760956
v -0.351563 0.262019 0.760956
s 1
f 1 2 3 4
f 3 5 6 4
f 7 8 2 1
f 5 9 10 6
f 11 12 8 7
f 9 13 14 10
f 15 16 12 11
f 13 17 18 14
f 19 20 16 15
f 17 21 22 18
f 23 24 25 26
f 27 28 29 30
f 24 31 32 25
f 33 34 28 27
f 31 35 36 32
f 37 38 34 33
f 35 39 40 36
f 41 42 38 37
f 39 43 44 40
f 45 46 42 41
f 43 47 48 44
f 49 50 46 45
f 47 51 52 48
f 53 54 50 49
f 51 55 56 52
f 57 58 54 53
f 55 59 60 56
f 61 62 58 57
f 59 63 64 60
f 64 63 62 61
f 65 66 56 60
f 57 67 68 61
f 66 69 52 56
f 53 70 67 57
f 71 48 52 69
f 53 49 72 70
f 73 44 48 71
f 49 45 74 72
f 75 40 44 73
f 45 41 76 74
f 77 36 40 75
f 41 37 78 76
f 79 32 36 77
f 37 33 80 78
f 81 25 32 79
f 33 27 82 80
f 83 26 25 81
f 27 30 84 82
f 83 85 86 26
f 86 87 84 30
f 65 60 64 88
f 64 61 68 89
f 88 64 90 91
f 90 64 89 92
f 86 85 91 90
f 92 87 86 90
f 93 94 3 2
f 3 94 95 5
f 96 93 2 8
f 5 95 97 9
f 98 96 8 12
f 9 97 99 13
f 20 100 101 16
f 102 103 21 17
f 98 12 16 101
f 17 13 99 102
f 104 105 106 100
f 106 105 107 103
f 101 100 106 108
f 106 103 102 108
f 109 98 101 108
f 102 99 109 108
f 110 111 112 104
f 113 114 115 107
f 116 117 111 110
f 114 118 119 115
f 120 121 117 116
f 118 122 120 119
f 123 124 121 120
f 122 124 123 120
f 105 104 112 125
f 113 107 105 125
f 125 112 126 127
f 128 113 125 127
f 124 129 130 121
f 131 129 124 122
f 121 130 132 117
f 133 131 122 118
f 117 132 134 111
f 135 133 118 114
f 111 134 126 112
f 128 135 114 113
f 129 134 132 130
f 133 135 129 131
f 129 127 126 134
f 128 127 129 135
f 120 116 26 86
f 30 119 120 86
f 116 110 136 26
f 137 115 119 30
f 110 104 138 136
f 139 107 115 137
f 104 100 20 138
f 21 103 107 139
f 19 140 138 20
f 139 141 22 21
f 140 142 136 138
f 137 143 141 139
f 23 26 136 142
f 137 30 29 143
f 98 109 144 145
f 144 109 99 146
f 96 98 145 147
f 146 99 97 148
f 93 96 147 149
f 148 97 95 150
f 94 93 149 151
f 150 95 94 151
f 151 149 152 153
f 154 150 151 153
f 149 147 155 152
f 156 148 150 154
f 147 145 157 155
f 158 146 148 156
f 145 144 159 157
f 159 144 146 158
f 159 153 152 157
f 154 153 159 158
f 157 152 155
f 156 154 158
f 91 85 160 161
f 162 87 92 163
f 88 91 161 164
f 163 92 89 165
f 65 88 164 166
f 165 89 68 167
f 85 83 168 160
f 169 84 87 162
f 83 81 170 168
f 171 82 84 169
f 81 79 172 170
f 173 80 82 171
f 79 77 174 172
f 175 78 80 173
f 77 75 176 174
f 177 76 78 175
f 75 73 178 176
f 179 74 76 177
f 73 71 180 178
f 181 72 74 179
f 71 69 182 180
f 183 70 72 181
f 69 66 184 182
f 185 67 70 183
f 66 65 166 184
f 167 68 67 185
f 184 166 186 187
f 188 167 185 189
f 182 184 187 190
f 189 185 183 191
f 180 182 190 192
f 191 183 181 193
f 178 180 192 194
f 193 181 179 195
f 176 178 194 196
f 195 179 177 197
f 174 176 196 198
f 197 177 175 199
f 172 174 198 200
f 199 175 173 201
f 170 172 200 202
f 201 173 171 203
f 168 170 202 204
f 203 171 169 205
f 160 168 204 206
f 205 169 162 207
f 166 164 208 186
f 209 165 167 188
f 164 161 210 208
f 211 163 165 209
f 161 160 206 210
f 207 162 163 211
f 63 59 212 213
f 214 62 63 213
f 59 55 215 212
f 216 58 62 214
f 55 51 217 215
f 218 54 58 216
f 51 47 219 217
f 220 50 54 218
f 47 43 221 219
f 222 46 50 220
f 43 39 223 221
f 224 42 46 222
f 39 35 225 223
f 226 38 42 224
f 35 31 227 225
f 228 34 38 226
f 31 24 229 227
f 230 28 34 228
f 231 232 233 234
f 235 236 237 238
f 239 231 234 240
f 238 237 241 242
f 243 239 240 244
f 242 241 245 246
f 247 248 243 244
f 245 249 250 246
f 251 247 244 252
f 246 250 253 254
f 11 251 252 255
f 254 253 14 256
f 15 11 255 257
f 256 14 18 258
f 255 240 234 257
f 238 242 256 258
f 255 252 244 240
f 246 254 256 242
f 259 257 234 233
f 238 258 260 235
f 19 15 257 259
f 258 18 22 260
f 140 261 262 142
f 263 264 141 143
f 19 259 261 140
f 264 260 22 141
f 23 142 262 265
f 263 143 29 266
f 23 265 229 24
f 230 266 29 28
f 267 268 269 270
f 271 272 273 274
f 270 269 275 276
f 277 271 274 278
f 276 275 279 280
f 281 277 278 282
f 280 279 233 232
f 235 281 282 236
f 259 233 279 261
f 281 235 260 264
f 225 227 283 284
f 285 228 226 286
f 287 288 268 267
f 272 289 290 273
f 291 292 293 294
f 295 296 291 294
f 294 293 297 298
f 299 295 294 298
f 298 297 300 301
f 302 299 298 301
f 221 223 303 304
f 305 224 222 306
f 304 303 307 308
f 309 305 306 310
f 308 307 311 312
f 313 309 310 314
f 312 311 315 316
f 317 313 314 318
f 319 320 316 315
f 318 321 322 317
f 300 297 316 320
f 318 299 302 321
f 297 293 312 316
f 314 295 299 318
f 293 292 308 312
f 310 296 295 314
f 292 323 304 308
f 306 324 296 310
f 219 221 304 323
f 306 222 220 324
f 325 323 292 291
f 296 324 325 291
f 212 215 217 219
f 218 216 214 220
f 212 219 323 325
f 324 220 214 325
f 213 212 325
f 325 214 213
f 223 225 284 303
f 286 226 224 305
f 284 326 307 303
f 309 327 286 305
f 326 328 311 307
f 313 329 327 309
f 319 315 311 328
f 313 317 322 329
f 279 275 330 331
f 332 277 281 333
f 283 331 330 334
f 332 333 285 335
f 227 229 331 283
f 333 230 228 285
f 229 262 261 331
f 264 263 230 333
f 261 279 331
f 333 281 264
f 229 265 262
f 263 266 230
f 336 337 338 339
f 340 341 342 343
f 288 339 338 268
f 340 343 289 272
f 334 330 338 337
f 340 332 335 341
f 275 269 338 330
f 340 271 277 332
f 268 338 269
f 271 340 272
f 344 345 346 347
f 348 349 350 351
f 344 347 352 353
f 354 351 350 355
f 353 352 356 357
f 358 354 355 359
f 357 356 360 361
f 362 358 359 363
f 361 360 364 365
f 366 362 363 367
f 365 364 368 369
f 370 366 367 371
f 364 372 373 368
f 374 375 366 370
f 360 376 372 364
f 375 377 362 366
f 356 378 376 360
f 377 379 358 362
f 352 380 378 356
f 379 381 354 358
f 347 382 380 352
f 381 383 351 354
f 347 346 384 382
f 385 348 351 383
f 283 334 386 387
f 388 335 285 389
f 334 369 368 386
f 370 371 335 388
f 284 283 387 326
f 389 285 286 327
f 328 390 346 345
f 348 391 329 349
f 368 373 392 386
f 393 374 370 388
f 394 395 386 392
f 388 396 397 393
f 398 395 394 399
f 397 396 400 401
f 402 403 395 398
f 396 404 405 400
f 390 403 402 406
f 405 404 391 407
f 346 390 406 384
f 407 391 348 385
f 326 403 390 328
f 391 404 327 329
f 326 387 395 403
f 396 389 327 404
f 387 386 395
f 396 388 389
f 384 406 408 409
f 410 407 385 411
f 406 402 412 408
f 413 405 407 410
f 402 398 414 412
f 415 400 405 413
f 398 399 416 414
f 417 401 400 415
f 399 394 418 416
f 419 397 401 417
f 394 392 420 418
f 421 393 397 419
f 392 373 422 420
f 423 374 393 421
f 382 384 409 424
f 411 385 383 425
f 380 382 424 426
f 425 383 381 427
f 378 380 426 428
f 427 381 379 429
f 376 378 428 430
f 429 379 377 431
f 372 376 430 432
f 431 377 375 433
f 373 372 432 422
f 433 375 374 423
f 416 418 434 435
f 436 419 417 437
f 435 434 438 439
f 440 436 437 441
f 439 438 442 443
f 444 440 441 445
f 443 442 446 447
f 448 444 445 449
f 424 409 443 447
f 445 411 425 449
f 408 439 443 409
f 445 441 410 411
f 408 412 435 439
f 437 413 410 441
f 416 435 412 414
f 413 437 417 415
f 420 422 434 418
f 436 423 421 419
f 432 438 434 422
f 436 440 433 423
f 430 442 438 432
f 440 444 431 433
f 428 446 442 430
f 444 448 429 431
f 426 447 446 428
f 448 449 427 429
f 424 447 426
f 427 449 425
f 365 369 450 451
f 452 371 367 453
f 361 365 451 454
f 453 367 363 455
f 357 361 454 456
f 455 363 359 457
f 353 357 456 458
f 459 359 355 460
f 344 353 458 461
f 460 355 350 462
f 345 344 461 463
f 462 350 349 464
f 465 451 450 466
f 452 453 467 468
f 465 469 454 451
f 455 470 467 453
f 469 471 454
f 455 457 470
f 319 328 345 463
f 349 329 322 464
f 336 466 450 337
f 452 468 342 341
f 334 337 450 369
f 452 341 335 371
f 198 196 472
f 210 206 472
f 187 186 472
f 190 187 472
f 194 192 472
f 211 209 473
f 200 198 472
f 206 204 472
f 208 210 472
f 186 208 472
f 196 194 472
f 192 190 472
f 204 202 472
f 205 207 473
f 209 188 473
f 201 203 473
f 188 189 473
f 202 200 472
f 197 199 473
f 195 197 473
f 189 191 473
f 207 211 473
f 191 193 473
f 203 205 473
f 193 195 473
f 199 201 473
